<?xml version="1.0" encoding="utf-8" ?>
<svg xmlns="http://www.w3.org/2000/svg" xmlns:xlink="http://www.w3.org/1999/xlink" width="512" height="512">
	<path fill="#914E25" d="M339.056 0L362.891 0C363.027 0.060789 363.162 0.124528 363.3 0.182367C365.496 1.10706 370.497 1.23783 373.105 1.6746C376.473 2.23862 379.961 3.18004 383.217 4.20938Q384.49 4.59981 385.752 5.0241Q387.014 5.44839 388.264 5.90624Q389.515 6.36409 390.752 6.85518Q391.99 7.34627 393.214 7.87024Q394.438 8.39421 395.648 8.95069Q396.858 9.50717 398.052 10.0958Q399.246 10.6844 400.424 11.3046Q401.603 11.9249 402.764 12.5765Q403.925 13.228 405.068 13.9103Q406.212 14.5926 407.337 15.3052Q408.461 16.0179 409.567 16.7603Q410.672 17.5027 411.757 18.2743Q412.842 19.046 413.906 19.8464Q414.97 20.6468 416.013 21.4753Q417.055 22.3038 418.075 23.1599Q419.095 24.0159 420.091 24.8989Q421.088 25.7819 422.061 26.6912Q423.033 27.6005 423.981 28.5355Q424.929 29.4704 425.852 30.4304Q426.775 31.3903 427.672 32.3746Q428.568 33.3588 429.439 34.3667Q430.309 35.3745 431.152 36.4053Q431.995 37.436 432.81 38.4889Q433.625 39.5418 434.411 40.6161Q435.198 41.6904 435.956 42.7853Q436.713 43.8802 437.442 44.9949Q438.17 46.1097 438.868 47.2435Q439.566 48.3773 440.234 49.5294Q440.901 50.6814 441.538 51.8509Q442.174 53.0204 442.779 54.2064Q443.385 55.3925 443.958 56.5943Q444.531 57.7961 445.072 59.0128Q445.561 60.1183 446.024 61.2355Q446.486 62.3526 446.921 63.4808Q447.356 64.6088 447.763 65.7472Q448.17 66.8856 448.549 68.0336Q448.929 69.1815 449.28 70.3384Q449.631 71.4953 449.954 72.6604Q450.277 73.8255 450.572 74.9981Q450.866 76.1707 451.132 77.3502Q451.397 78.5296 451.634 79.7152Q451.871 80.9008 452.079 82.0919Q452.287 83.2829 452.465 84.4786Q452.644 85.6743 452.794 86.8741Q452.943 88.0738 453.063 89.2768Q453.184 90.4799 453.274 91.6855Q453.365 92.8911 453.427 94.0985Q453.488 95.306 453.52 96.5146Q453.552 97.7232 453.554 98.9322Q453.557 100.141 453.53 101.35Q453.503 102.559 453.446 103.766Q453.389 104.974 453.303 106.18Q453.217 107.386 453.102 108.589Q452.987 109.793 452.842 110.993Q452.697 112.194 452.523 113.39Q452.349 114.587 452.146 115.778Q451.943 116.97 451.711 118.157Q451.479 119.343 451.218 120.524Q450.957 121.704 450.668 122.878Q450.378 124.052 450.06 125.218Q449.741 126.385 449.395 127.543Q449.048 128.701 448.673 129.851Q448.299 131 447.896 132.14Q447.493 133.28 447.063 134.41C437.878 158.152 419.304 178.954 395.808 189.282C394.184 189.996 392.122 190.613 390.678 191.623C379.959 188.215 369.242 186.653 358.029 186.394C357.162 171.461 354.075 159.734 345.605 147.173C343.598 144.196 341.302 141.426 339.17 138.537C339.476 134.701 339.092 129.397 339.089 125.403L339.088 94.6613L339.056 0Z"/>
	<path fill="#E9AD57" d="M255.742 104.068C261.31 104.219 266.92 104.392 272.452 105.079C296.333 108.041 320.204 118.614 336.847 136.179C337.608 136.983 338.362 137.78 339.17 138.537C341.302 141.426 343.598 144.196 345.605 147.173C354.075 159.734 357.162 171.461 358.029 186.394C369.242 186.653 379.959 188.215 390.678 191.623C396.568 193.792 402.355 196.114 407.879 199.122C426.86 209.456 442.058 226.75 451.068 246.258C461.895 269.701 463.117 298.537 454.133 322.763C453.42 324.686 452.628 326.584 451.849 328.481C464.819 347.178 469.796 371.874 465.848 394.229Q465.657 395.346 465.438 396.458Q465.219 397.571 464.973 398.677Q464.727 399.783 464.453 400.883Q464.18 401.983 463.879 403.076Q463.578 404.169 463.251 405.254Q462.923 406.339 462.568 407.416Q462.214 408.492 461.833 409.56Q461.452 410.627 461.044 411.685Q460.637 412.743 460.204 413.79Q459.77 414.838 459.311 415.874Q458.852 416.91 458.367 417.935Q457.882 418.959 457.372 419.972Q456.862 420.984 456.327 421.983Q455.792 422.982 455.233 423.968Q454.673 424.954 454.089 425.926Q453.506 426.897 452.898 427.854Q452.29 428.811 451.659 429.752Q451.028 430.694 450.374 431.619Q449.72 432.545 449.043 433.454Q448.365 434.363 447.666 435.255Q446.967 436.147 446.246 437.022Q445.524 437.896 444.782 438.752Q444.039 439.609 443.276 440.446Q442.512 441.284 441.728 442.103Q440.944 442.921 440.14 443.72Q439.335 444.519 438.512 445.297Q437.688 446.076 436.845 446.834Q436.003 447.592 435.141 448.329Q434.28 449.066 433.401 449.781Q432.521 450.496 431.625 451.19Q430.728 451.883 429.815 452.554Q428.901 453.225 427.971 453.873C420.942 458.733 413.628 462.296 405.692 465.419C404.17 469.134 402.665 472.854 400.714 476.37Q400.005 477.641 399.244 478.881Q398.482 480.121 397.67 481.328Q396.857 482.535 395.996 483.708Q395.134 484.88 394.224 486.015Q393.314 487.151 392.357 488.247Q391.401 489.344 390.399 490.4Q389.398 491.455 388.353 492.468Q387.309 493.481 386.223 494.45Q385.137 495.419 384.012 496.342Q382.887 497.264 381.724 498.139Q380.562 499.014 379.364 499.84Q378.165 500.666 376.934 501.441Q375.703 502.216 374.44 502.939Q373.177 503.663 371.886 504.333Q370.594 505.003 369.275 505.618Q367.957 506.234 366.614 506.794C363.554 508.074 360.51 509.142 357.288 509.928C354.807 510.534 350.205 510.959 348.174 512L262.676 512L255.997 512L256.008 370.589C253.918 367.788 251.26 365.129 248.967 362.461L233.735 344.717L212.499 319.94C208.542 315.323 204.683 310.569 200.543 306.121Q201.078 305.504 201.64 304.912C216.04 289.743 235.189 282.094 255.955 281.545C256.25 273.086 255.982 264.528 255.981 256.056L255.977 206.222L255.994 138.974C255.999 127.705 256.192 116.402 256.001 105.138C255.994 104.713 255.929 104.448 255.742 104.068Z"/>
	<path fill="#414040" d="M343.193 244.469C353.163 244.782 363.267 244.488 373.248 244.489L373.236 297.586C363.233 297.438 353.215 297.547 343.209 297.545C343.385 279.862 343.261 262.153 343.193 244.469Z"/>
	<path fill="#914E25" d="M255.955 281.545C276.812 282.159 295.97 289.509 310.386 304.906Q310.91 305.465 311.411 306.046C320.123 315.067 326.442 327.56 329.229 339.747C331.257 348.615 331.163 357.637 331.166 366.674L331.17 386.634C331.172 402.948 331.426 419.31 331.131 435.618C330.741 457.201 323.796 475.862 307.967 491.05C298.448 500.184 286.069 507.216 273.122 510.024C271.066 510.47 263.905 511.14 262.676 512L255.997 512L256.008 370.589C253.918 367.788 251.26 365.129 248.967 362.461L233.735 344.717L212.499 319.94C208.542 315.323 204.683 310.569 200.543 306.121Q201.078 305.504 201.64 304.912C216.04 289.743 235.189 282.094 255.955 281.545Z"/>
	<path fill="#414040" d="M255.955 281.545C276.812 282.159 295.97 289.509 310.386 304.906Q310.91 305.465 311.411 306.046C306.586 311.131 302.2 316.837 297.632 322.172L270.093 354.284L260.953 364.989C259.375 366.839 257.82 368.99 256.008 370.589C253.918 367.788 251.26 365.129 248.967 362.461L233.735 344.717L212.499 319.94C208.542 315.323 204.683 310.569 200.543 306.121Q201.078 305.504 201.64 304.912C216.04 289.743 235.189 282.094 255.955 281.545Z"/>
	<path fill="#616060" d="M255.955 281.545L256.008 370.589C253.918 367.788 251.26 365.129 248.967 362.461L233.735 344.717L212.499 319.94C208.542 315.323 204.683 310.569 200.543 306.121Q201.078 305.504 201.64 304.912C216.04 289.743 235.189 282.094 255.955 281.545Z"/>
	<path fill="#FEC378" d="M0 0L149.068 0L172.996 0L172.994 89.7616C172.995 105.735 173.368 121.817 172.897 137.779C172.885 138.164 172.903 138.052 173.097 138.494C174.425 137.216 175.568 135.626 176.844 134.271C192.77 117.365 217.079 108.063 239.716 105.069C245.008 104.369 250.411 104.233 255.742 104.068C255.929 104.448 255.994 104.713 256.001 105.138C256.192 116.402 255.999 127.705 255.994 138.974L255.977 206.222L255.981 256.056C255.982 264.528 256.25 273.086 255.955 281.545C235.189 282.094 216.04 289.743 201.64 304.912Q201.078 305.504 200.543 306.121C204.683 310.569 208.542 315.323 212.499 319.94L233.735 344.717L248.967 362.461C251.26 365.129 253.918 367.788 256.008 370.589L255.997 512L248.327 512L163.823 512L0 512L0 0ZM0 0L0 512L163.823 512C162.016 511.007 155.319 510.006 152.832 509.366C149.642 508.544 146.364 507.23 143.378 505.849C125.891 497.76 113.037 483.465 106.42 465.385C101.807 463.486 97.1982 461.61 92.8021 459.238C71.0157 447.48 55.4569 427.493 48.4448 403.888C42.7062 384.57 44.0764 362.388 51.8389 343.814C54.1266 338.34 57.1437 333.455 59.9509 328.258C57.9642 322.785 55.9895 317.326 54.6464 311.652Q54.2008 309.744 53.8283 307.82Q53.4558 305.896 53.1569 303.96Q52.858 302.023 52.6332 300.077Q52.4084 298.13 52.258 296.177Q52.1076 294.223 52.0318 292.265Q51.956 290.307 51.9549 288.347Q51.9538 286.388 52.0275 284.43Q52.1012 282.472 52.2494 280.518Q52.3977 278.564 52.6204 276.617Q52.8431 274.67 53.1399 272.734Q53.4366 270.797 53.8071 268.873Q54.1775 266.948 54.621 265.04Q55.0646 263.131 55.5806 261.241Q56.0965 259.351 56.6843 257.481Q57.272 255.612 57.9305 253.767Q58.5891 251.921 59.3176 250.102C67.2903 230.249 82.2651 211.74 100.842 200.914C104.709 198.661 108.961 196.413 113.1 194.692C115.886 193.533 118.799 192.695 121.574 191.511C124.989 190.912 128.431 189.633 131.831 188.85C139.149 187.164 146.505 186.506 154 186.432C154.032 183.799 154.255 181.083 154.554 178.466C156.007 165.719 161.271 154.01 168.866 143.77C170.114 142.087 171.458 139.786 173.097 138.494C172.903 138.052 172.885 138.164 172.897 137.779C173.368 121.817 172.995 105.735 172.994 89.7616L172.996 0L149.068 0L0 0Z"/>
	<path fill="#616060" d="M138.779 244.433C148.76 244.744 158.815 244.492 168.804 244.491L168.793 297.554C158.802 297.391 148.774 297.546 138.78 297.546L138.779 244.433Z"/>
	<path fill="#CA6E37" d="M200.543 306.121C204.683 310.569 208.542 315.323 212.499 319.94L233.735 344.717L248.967 362.461C251.26 365.129 253.918 367.788 256.008 370.589L255.997 512L248.327 512C246.995 511.082 240.819 510.511 238.832 510.056C225.892 507.088 213.64 500.179 204.048 491.078C188.566 476.39 181.389 457.67 180.873 436.585C180.475 420.295 180.824 403.903 180.828 387.602L180.834 366.749C180.834 357.933 180.676 349.012 182.627 340.355C185.448 327.837 191.673 315.447 200.543 306.121Z"/>
	<path fill="#CA6E37" d="M149.068 0L172.996 0L172.994 89.7616C172.995 105.735 173.368 121.817 172.897 137.779C172.885 138.164 172.903 138.052 173.097 138.494C171.458 139.786 170.114 142.087 168.866 143.77C161.271 154.01 156.007 165.719 154.554 178.466C154.255 181.083 154.032 183.799 154 186.432C146.505 186.506 139.149 187.164 131.831 188.85C128.431 189.633 124.989 190.912 121.574 191.511C120.379 191.132 119.228 190.674 118.086 190.157C92.879 178.744 74.0595 158.767 64.3633 132.845Q63.9542 131.719 63.5725 130.583Q63.1908 129.447 62.8369 128.302Q62.4829 127.158 62.1569 126.005Q61.8309 124.852 61.5329 123.691Q61.235 122.53 60.9654 121.363Q60.6957 120.195 60.4545 119.022Q60.2133 117.848 60.0007 116.669Q59.7881 115.49 59.6042 114.306Q59.4203 113.122 59.2652 111.933Q59.1101 110.745 58.9839 109.554Q58.8577 108.362 58.7606 107.168Q58.6634 105.974 58.5952 104.777Q58.5271 103.581 58.488 102.383Q58.4489 101.186 58.439 99.9877Q58.429 98.7895 58.4482 97.5914Q58.4673 96.3933 58.5156 95.1961Q58.5638 93.9988 58.6411 92.8031Q58.7185 91.6074 58.8248 90.4139Q58.9312 89.2204 59.0665 88.0298Q59.2018 86.8393 59.366 85.6524Q59.5302 84.4654 59.7232 83.2829Q59.9162 82.1003 60.1378 80.9227Q60.3595 79.7452 60.6097 78.5734Q60.8599 77.4016 61.1385 76.2362Q61.4171 75.0708 61.7239 73.9125Q62.0307 72.7542 62.3656 71.6038Q62.7005 70.4533 63.0632 69.3113Q63.4259 68.1693 63.8163 67.0364Q64.2066 65.9036 64.6244 64.7805Q65.0422 63.6575 65.4871 62.5449Q65.932 61.4324 66.4038 60.331Q66.8757 59.2295 67.3741 58.1399Q67.9145 56.9473 68.4861 55.7694Q69.0577 54.5914 69.6601 53.4289Q70.2625 52.2664 70.8953 51.1202Q71.5281 49.974 72.1909 48.8448Q72.8536 47.7156 73.5459 46.6043Q74.2382 45.493 74.9594 44.4002Q75.6807 43.3075 76.4305 42.2341Q77.1803 41.1608 77.9581 40.1076Q78.7359 39.0543 79.5412 38.0219Q80.3464 36.9895 81.1786 35.9787Q82.0107 34.9678 82.8692 33.9792Q83.7277 32.9907 84.6119 32.025Q85.4961 31.0594 86.4054 30.1174Q87.3148 29.1753 88.2486 28.2576Q89.1824 27.3398 90.14 26.447Q91.0977 25.5541 92.0785 24.6868Q93.0593 23.8194 94.0627 22.9782Q95.066 22.137 96.0911 21.3225Q97.1162 20.508 98.1624 19.7208Q99.2086 18.9335 100.275 18.1741Q101.342 17.4147 102.428 16.6836Q103.514 15.9526 104.619 15.2503Q105.724 14.5481 106.847 13.8752Q107.971 13.2023 109.111 12.5593Q110.252 11.9162 111.409 11.3033Q112.566 10.6905 113.738 10.1083Q114.911 9.52617 116.099 8.97509Q117.287 8.424 118.488 7.90438Q119.69 7.38476 120.905 6.89695Q122.12 6.40915 123.348 5.9535Q124.575 5.49785 125.814 5.07468Q127.053 4.65151 128.303 4.2611C131.924 3.12761 135.788 2.19698 139.536 1.5896C141.987 1.1925 146.45 1.08164 148.673 0.171405C148.806 0.116985 148.937 0.057135 149.068 0Z"/>
</svg>
